<svg version="1.1" id="Layer_1" xmlns="http://www.w3.org/2000/svg" xmlns:xlink="http://www.w3.org/1999/xlink" x="0px" y="0px"
	 width="100%" viewBox="0 0 512 512" enable-background="new 0 0 512 512" xml:space="preserve">
<path fill="#ffffffff" opacity="1.000000" stroke="none" 
	d="
M313.854340,417.298553 
	C281.392212,418.910706 252.407196,410.543732 226.839828,391.079468 
	C206.529007,375.616943 192.523224,355.556946 183.551544,331.727142 
	C176.262207,312.365784 167.986588,293.430481 155.836349,276.493744 
	C145.855927,262.581635 134.000137,250.888977 117.391251,245.052750 
	C107.483025,241.571106 97.209602,240.888947 86.853317,241.500671 
	C82.212883,241.774780 77.976402,243.866852 75.265656,247.682220 
	C67.821930,258.159180 57.124054,258.295898 46.094975,257.176636 
	C38.912388,256.447723 32.806274,249.811890 32.750011,242.492462 
	C32.578369,220.162369 32.571739,197.829117 32.756237,175.499176 
	C32.821995,167.540680 39.602100,161.102402 47.564529,160.700943 
	C49.559650,160.600372 51.563396,160.663879 53.563179,160.663849 
	C136.889984,160.662582 220.218658,160.324356 303.542938,160.782410 
	C358.472321,161.084366 397.956390,187.015640 422.125793,236.091949 
	C428.516968,249.069290 438.058044,255.940948 452.472107,256.758545 
	C468.852020,257.687653 481.429901,272.361023 481.346252,289.863220 
	C481.269165,305.986206 468.035706,320.399109 452.264832,321.288910 
	C438.130188,322.086395 428.368286,328.664886 422.255157,341.641724 
	C402.752228,383.042084 370.184570,407.688843 325.237091,416.008209 
	C321.647430,416.672638 317.971924,416.873505 313.854340,417.298553 
M341.625946,377.070312 
	C390.236328,356.476257 412.705719,301.650696 393.894470,254.270828 
	C373.804901,203.671326 317.704742,181.216263 269.898193,200.290619 
	C220.449265,220.020340 197.060806,275.559143 216.157578,323.547607 
	C236.121414,373.714996 291.153717,397.314392 341.625946,377.070312 
M464.601227,288.600800 
	C464.228760,286.988953 463.997223,285.328278 463.458588,283.774017 
	C461.462891,278.015045 455.566925,273.713806 449.442932,273.424011 
	C443.795715,273.156799 437.649689,277.055695 435.101868,282.521790 
	C432.335297,288.457031 433.287476,294.836517 437.935608,299.470825 
	C442.043732,303.566711 446.852661,305.658875 452.821655,303.858215 
	C460.053467,301.676666 463.588501,296.583893 464.601227,288.600800 
z"/>
<path fill="#000000" opacity="1.000000" stroke="none" 
	d="
M293.865112,225.529388 
	C328.682983,219.626022 361.551758,241.685532 368.198608,276.274841 
	C375.354950,313.515381 351.264862,347.879456 313.909943,352.933563 
	C276.163727,358.040619 246.924286,331.822266 241.401169,299.963959 
	C235.388138,265.279846 258.832245,231.247910 293.865112,225.529388 
M301.703156,242.251038 
	C292.045074,258.160431 282.386993,274.069824 272.504547,290.348846 
	C280.294434,294.971924 287.909058,298.823547 294.759705,303.739807 
	C301.958435,308.905884 308.023926,309.122955 315.301788,303.736298 
	C322.170898,298.652222 329.988739,294.850006 337.720123,290.288696 
	C326.762970,272.327850 316.170715,254.965149 305.235138,237.039673 
	C303.759003,239.215775 302.926514,240.443054 301.703156,242.251038 
M282.053345,310.491730 
	C289.584808,320.914764 297.116241,331.337769 305.149750,342.455566 
	C315.387756,328.146179 324.880859,314.877899 334.373932,301.609619 
	C326.189575,304.983063 318.622498,308.857574 311.622772,313.574097 
	C306.688965,316.898621 302.890564,316.481171 298.137512,313.348450 
	C290.814026,308.521576 283.037811,304.381622 275.453644,299.950287 
	C275.293793,300.168335 275.133942,300.386353 274.974091,300.604401 
	C277.187561,303.711578 279.401062,306.818756 282.053345,310.491730 
z"/>
</svg>